<mxfile host="app.diagrams.net" modified="2023-04-10T17:06:20.280Z" agent="Mozilla/5.0 (Windows NT 10.0; Win64; x64) AppleWebKit/537.36 (KHTML, like Gecko) Chrome/111.0.0.0 Safari/537.36" etag="OvxxzMm5Xik0hpukESo6" version="21.1.5" type="device">
  <diagram name="Página-1" id="nD5u2jVXbvOZKsRKMd3N">
    <mxGraphModel dx="472" dy="729" grid="1" gridSize="10" guides="1" tooltips="1" connect="1" arrows="1" fold="1" page="1" pageScale="1" pageWidth="827" pageHeight="1169" math="0" shadow="0">
      <root>
        <mxCell id="0" />
        <mxCell id="1" parent="0" />
        <mxCell id="qgUzGglx-EmW4VqeakDZ-3" style="edgeStyle=orthogonalEdgeStyle;rounded=0;orthogonalLoop=1;jettySize=auto;html=1;entryX=0.5;entryY=0;entryDx=0;entryDy=0;entryPerimeter=0;" edge="1" parent="1" source="qgUzGglx-EmW4VqeakDZ-1" target="qgUzGglx-EmW4VqeakDZ-2">
          <mxGeometry relative="1" as="geometry" />
        </mxCell>
        <mxCell id="qgUzGglx-EmW4VqeakDZ-1" value="&lt;font style=&quot;font-size: 20px;&quot;&gt;Inicio&lt;/font&gt;" style="ellipse;whiteSpace=wrap;html=1;" vertex="1" parent="1">
          <mxGeometry x="360" y="50" width="120" height="80" as="geometry" />
        </mxCell>
        <mxCell id="qgUzGglx-EmW4VqeakDZ-5" style="edgeStyle=orthogonalEdgeStyle;rounded=0;orthogonalLoop=1;jettySize=auto;html=1;" edge="1" parent="1" source="qgUzGglx-EmW4VqeakDZ-2" target="qgUzGglx-EmW4VqeakDZ-4">
          <mxGeometry relative="1" as="geometry" />
        </mxCell>
        <mxCell id="qgUzGglx-EmW4VqeakDZ-2" value="&quot;Informe dois numeros&quot;" style="strokeWidth=2;html=1;shape=mxgraph.flowchart.display;whiteSpace=wrap;" vertex="1" parent="1">
          <mxGeometry x="340" y="200" width="160" height="70" as="geometry" />
        </mxCell>
        <mxCell id="qgUzGglx-EmW4VqeakDZ-30" style="edgeStyle=orthogonalEdgeStyle;rounded=0;orthogonalLoop=1;jettySize=auto;html=1;" edge="1" parent="1" source="qgUzGglx-EmW4VqeakDZ-4" target="qgUzGglx-EmW4VqeakDZ-6">
          <mxGeometry relative="1" as="geometry" />
        </mxCell>
        <mxCell id="qgUzGglx-EmW4VqeakDZ-4" value="num1, num2" style="html=1;strokeWidth=2;shape=manualInput;whiteSpace=wrap;rounded=1;size=26;arcSize=11;" vertex="1" parent="1">
          <mxGeometry x="352" y="330" width="136" height="80" as="geometry" />
        </mxCell>
        <mxCell id="qgUzGglx-EmW4VqeakDZ-10" style="edgeStyle=orthogonalEdgeStyle;rounded=0;orthogonalLoop=1;jettySize=auto;html=1;entryX=0.5;entryY=0;entryDx=0;entryDy=0;entryPerimeter=0;" edge="1" parent="1" source="qgUzGglx-EmW4VqeakDZ-6" target="qgUzGglx-EmW4VqeakDZ-9">
          <mxGeometry relative="1" as="geometry" />
        </mxCell>
        <mxCell id="qgUzGglx-EmW4VqeakDZ-12" style="edgeStyle=orthogonalEdgeStyle;rounded=0;orthogonalLoop=1;jettySize=auto;html=1;exitX=1;exitY=0.5;exitDx=0;exitDy=0;exitPerimeter=0;" edge="1" parent="1" source="qgUzGglx-EmW4VqeakDZ-6" target="qgUzGglx-EmW4VqeakDZ-7">
          <mxGeometry relative="1" as="geometry" />
        </mxCell>
        <mxCell id="qgUzGglx-EmW4VqeakDZ-6" value="Se&amp;nbsp;&lt;br&gt;num1 &amp;gt; num2" style="strokeWidth=2;html=1;shape=mxgraph.flowchart.decision;whiteSpace=wrap;" vertex="1" parent="1">
          <mxGeometry x="360" y="440" width="120" height="120" as="geometry" />
        </mxCell>
        <mxCell id="qgUzGglx-EmW4VqeakDZ-25" style="edgeStyle=orthogonalEdgeStyle;rounded=0;orthogonalLoop=1;jettySize=auto;html=1;exitX=0.5;exitY=1;exitDx=0;exitDy=0;exitPerimeter=0;entryX=1;entryY=0.5;entryDx=0;entryDy=0;entryPerimeter=0;" edge="1" parent="1" source="qgUzGglx-EmW4VqeakDZ-7" target="qgUzGglx-EmW4VqeakDZ-27">
          <mxGeometry relative="1" as="geometry">
            <mxPoint x="420" y="850" as="targetPoint" />
          </mxGeometry>
        </mxCell>
        <mxCell id="qgUzGglx-EmW4VqeakDZ-7" value="&quot;Num1 é maior&quot;" style="strokeWidth=2;html=1;shape=mxgraph.flowchart.display;whiteSpace=wrap;" vertex="1" parent="1">
          <mxGeometry x="470" y="600" width="100" height="60" as="geometry" />
        </mxCell>
        <mxCell id="qgUzGglx-EmW4VqeakDZ-22" style="edgeStyle=orthogonalEdgeStyle;rounded=0;orthogonalLoop=1;jettySize=auto;html=1;exitX=0.5;exitY=1;exitDx=0;exitDy=0;exitPerimeter=0;entryX=1;entryY=0.5;entryDx=0;entryDy=0;entryPerimeter=0;" edge="1" parent="1" source="qgUzGglx-EmW4VqeakDZ-8" target="qgUzGglx-EmW4VqeakDZ-19">
          <mxGeometry relative="1" as="geometry" />
        </mxCell>
        <mxCell id="qgUzGglx-EmW4VqeakDZ-8" value="&quot;num2 &amp;gt; num1&quot;" style="strokeWidth=2;html=1;shape=mxgraph.flowchart.display;whiteSpace=wrap;" vertex="1" parent="1">
          <mxGeometry x="310" y="680" width="100" height="60" as="geometry" />
        </mxCell>
        <mxCell id="qgUzGglx-EmW4VqeakDZ-14" style="edgeStyle=orthogonalEdgeStyle;rounded=0;orthogonalLoop=1;jettySize=auto;html=1;exitX=1;exitY=0.5;exitDx=0;exitDy=0;exitPerimeter=0;" edge="1" parent="1" source="qgUzGglx-EmW4VqeakDZ-9" target="qgUzGglx-EmW4VqeakDZ-8">
          <mxGeometry relative="1" as="geometry" />
        </mxCell>
        <mxCell id="qgUzGglx-EmW4VqeakDZ-18" style="edgeStyle=orthogonalEdgeStyle;rounded=0;orthogonalLoop=1;jettySize=auto;html=1;exitX=0;exitY=0.5;exitDx=0;exitDy=0;exitPerimeter=0;entryX=0.5;entryY=0;entryDx=0;entryDy=0;entryPerimeter=0;" edge="1" parent="1" source="qgUzGglx-EmW4VqeakDZ-9" target="qgUzGglx-EmW4VqeakDZ-16">
          <mxGeometry relative="1" as="geometry" />
        </mxCell>
        <mxCell id="qgUzGglx-EmW4VqeakDZ-9" value="Se&lt;br&gt;num2&amp;gt;num1" style="strokeWidth=2;html=1;shape=mxgraph.flowchart.decision;whiteSpace=wrap;" vertex="1" parent="1">
          <mxGeometry x="220" y="530" width="100" height="100" as="geometry" />
        </mxCell>
        <mxCell id="qgUzGglx-EmW4VqeakDZ-11" value="F" style="text;html=1;align=center;verticalAlign=middle;resizable=0;points=[];autosize=1;strokeColor=none;fillColor=none;" vertex="1" parent="1">
          <mxGeometry x="300" y="480" width="30" height="30" as="geometry" />
        </mxCell>
        <mxCell id="qgUzGglx-EmW4VqeakDZ-13" value="V" style="text;html=1;align=center;verticalAlign=middle;resizable=0;points=[];autosize=1;strokeColor=none;fillColor=none;" vertex="1" parent="1">
          <mxGeometry x="488" y="480" width="30" height="30" as="geometry" />
        </mxCell>
        <mxCell id="qgUzGglx-EmW4VqeakDZ-15" value="V" style="text;html=1;align=center;verticalAlign=middle;resizable=0;points=[];autosize=1;strokeColor=none;fillColor=none;" vertex="1" parent="1">
          <mxGeometry x="325" y="555" width="30" height="30" as="geometry" />
        </mxCell>
        <mxCell id="qgUzGglx-EmW4VqeakDZ-21" style="edgeStyle=orthogonalEdgeStyle;rounded=0;orthogonalLoop=1;jettySize=auto;html=1;exitX=0.5;exitY=1;exitDx=0;exitDy=0;exitPerimeter=0;entryX=0;entryY=0.5;entryDx=0;entryDy=0;entryPerimeter=0;" edge="1" parent="1" source="qgUzGglx-EmW4VqeakDZ-16" target="qgUzGglx-EmW4VqeakDZ-19">
          <mxGeometry relative="1" as="geometry" />
        </mxCell>
        <mxCell id="qgUzGglx-EmW4VqeakDZ-16" value="&quot;num1 = num2&quot;" style="strokeWidth=2;html=1;shape=mxgraph.flowchart.display;whiteSpace=wrap;" vertex="1" parent="1">
          <mxGeometry x="130" y="680" width="100" height="60" as="geometry" />
        </mxCell>
        <mxCell id="qgUzGglx-EmW4VqeakDZ-24" style="edgeStyle=orthogonalEdgeStyle;rounded=0;orthogonalLoop=1;jettySize=auto;html=1;exitX=0.5;exitY=1;exitDx=0;exitDy=0;exitPerimeter=0;entryX=0;entryY=0.5;entryDx=0;entryDy=0;entryPerimeter=0;" edge="1" parent="1" source="qgUzGglx-EmW4VqeakDZ-19" target="qgUzGglx-EmW4VqeakDZ-27">
          <mxGeometry relative="1" as="geometry" />
        </mxCell>
        <mxCell id="qgUzGglx-EmW4VqeakDZ-19" value="" style="verticalLabelPosition=bottom;verticalAlign=top;html=1;shape=mxgraph.flowchart.on-page_reference;" vertex="1" parent="1">
          <mxGeometry x="255" y="790" width="30" height="20" as="geometry" />
        </mxCell>
        <mxCell id="qgUzGglx-EmW4VqeakDZ-23" value="Fim" style="strokeWidth=2;html=1;shape=mxgraph.flowchart.terminator;whiteSpace=wrap;" vertex="1" parent="1">
          <mxGeometry x="370" y="940" width="100" height="60" as="geometry" />
        </mxCell>
        <mxCell id="qgUzGglx-EmW4VqeakDZ-29" style="edgeStyle=orthogonalEdgeStyle;rounded=0;orthogonalLoop=1;jettySize=auto;html=1;" edge="1" parent="1" source="qgUzGglx-EmW4VqeakDZ-27" target="qgUzGglx-EmW4VqeakDZ-23">
          <mxGeometry relative="1" as="geometry" />
        </mxCell>
        <mxCell id="qgUzGglx-EmW4VqeakDZ-27" value="" style="verticalLabelPosition=bottom;verticalAlign=top;html=1;shape=mxgraph.flowchart.on-page_reference;" vertex="1" parent="1">
          <mxGeometry x="405" y="850" width="30" height="20" as="geometry" />
        </mxCell>
      </root>
    </mxGraphModel>
  </diagram>
</mxfile>
